<svg height="512pt" viewBox="0 0 512 512" width="512pt" xmlns="http://www.w3.org/2000/svg" xmlns:xlink="http://www.w3.org/1999/xlink"><linearGradient id="a" gradientUnits="userSpaceOnUse" x1="0" x2="512" y1="255.5" y2="255.5"><stop offset="0" stop-color="#80d8ff"/><stop offset="1" stop-color="#ea80fc"/></linearGradient><path d="m502.558594 397.960938c-.425782-.265626-43.179688-26.949219-85.191406-61.058594-24.183594-19.636719-43.320313-37.789063-56.878907-53.949219-16.5-19.667969-21.105469-32.058594-22.128906-38.871094 8.78125-20.925781 13.640625-43.890625 13.640625-67.972656 0-97.105469-78.953125-176.109375-176-176.109375s-176 79.003906-176 176.109375c0 97.109375 78.953125 176.113281 176 176.113281 25.066406 0 48.914062-5.28125 70.519531-14.773437 12.378907 2.429687 40.695313 16.042969 92.078125 79.59375 33.796875 41.796875 60.148438 84.085937 60.410156 84.503906 3.648438 5.878906 10.074219 9.453125 16.992188 9.453125h76c11.046875 0 20-8.953125 20-20v-76.054688c0-6.910156-3.570312-13.335937-9.441406-16.984374zm-326.558594-85.738282c-74.992188 0-136-61.0625-136-136.113281s61.007812-136.109375 136-136.109375 136 61.058594 136 136.109375c0 75.054687-61.007812 136.113281-136 136.113281zm296 158.777344h-45.046875c-9.929687-15.265625-31.136719-46.777344-57.007813-78.804688-30.886718-38.242187-58.210937-64.71875-82.507812-79.878906 9.511719-7.804687 18.191406-16.589844 25.890625-26.195312 15.03125 24.1875 41.277344 51.378906 79.125 82.074218 32.277344 26.183594 64.167969 47.679688 79.546875 57.695313zm0 0" fill="url(#a)"/></svg>